<?xml version="1.0" standalone="yes"?>
<svg xmlns="http://www.w3.org/2000/svg" width="512" height="512">
<path style="fill:#ffffff; stroke:none;" d="M0 0L0 300C3.35587 296.281 6.12971 292.056 11 290.148C18.2517 287.308 28.3266 289 36 289L87 289L106 289C108.509 288.999 112.149 289.583 114.298 287.972C118.063 285.15 119.588 276.333 121 272L61 272C51.3076 272 40.577 273.297 31 271.786C21.2403 270.247 15.3367 259.057 19.0093 250C24.0485 237.573 38.2188 240 49 240L133 240C134.578 234.219 136.844 228.59 139 223L79 223C69.5533 223 58.205 224.704 49 222.467C34.0035 218.822 31.989 199.525 45.0008 192.09C51.4451 188.407 60.8574 190 68 190L119 190L306 190L306 164C306 154.625 305.979 145.171 316 140.653C322.951 137.519 328.947 140.705 335 144.15C344.695 149.669 354.325 155.297 364 160.85C399.064 180.978 434.032 201.281 469 221.576L495 236.576C501.252 240.206 507.539 243.385 511 250C513.701 243.564 512 233.951 512 227L512 176L512 0L0 0z"/>
<path style="fill:#000000; stroke:none;" d="M306 190L118 190L67 190C59.8776 190 50.421 188.391 44.0039 192.09C31.7496 199.152 33.9516 219.052 48 222.467C57.2049 224.704 68.5534 223 78 223L139 223C136.266 228.188 133.995 234.215 133 240L49 240C39.0203 240 24.9239 237.218 19.4568 248.004C14.89 257.014 19.453 270.123 30 271.786C39.577 273.297 50.3076 272 60 272L121 272C119.039 276.403 117.733 285.214 113.581 287.972C108.814 291.139 97.5706 289 92 289L37 289C25.2659 289 6.56709 285.294 1.00926 299C-2.74345 308.254 2.2083 319.131 12 321.468C17.9688 322.892 24.8975 322 31 322L67 322L306 322L306 351C306 358.153 305.839 364.709 312.043 369.57C324.466 379.305 341.367 364.905 352 358.603C385.428 338.794 419.239 319.517 453 300.281C467.384 292.085 481.684 283.738 496 275.424C504.274 270.62 511.992 266.63 511.992 256C511.992 245.37 504.274 241.38 496 236.576C481.684 228.262 467.384 219.915 453 211.719C419.239 192.483 385.428 173.206 352 153.397C341.367 147.095 324.466 132.695 312.043 142.43C305.839 147.291 306 153.847 306 161L306 190z"/>
<path style="fill:#ffffff; stroke:none;" d="M511 262C507.539 268.615 501.252 271.794 495 275.424L469 290.424C434.032 310.719 399.064 331.022 364 351.15C354.325 356.703 344.695 362.331 335 367.85C328.947 371.295 322.952 374.481 316 371.347C305.979 366.829 306 357.375 306 348L306 322L76 322L25 322C14.9189 322 5.49877 321.536 1 311C-1.29215 316.462 0 324.113 0 330L0 371L0 512L512 512L512 336L512 285C512 278.049 513.701 268.436 511 262z"/>
</svg>
