<?xml version="1.0" standalone="yes"?>
<svg xmlns="http://www.w3.org/2000/svg" width="512" height="512">
<path style="fill:#ffffff; stroke:none;" d="M0 0L0 512L36 512C32.24 509.345 28.4656 507.073 26.0085 502.999C19.9678 492.984 23 476.229 23 465L23 353L489 353L489 471C489 484.704 492.45 505.407 476 511C479.959 512.661 484.74 512 489 512L512 512L512 0L476 0C479.76 2.65475 483.534 4.92706 485.992 9.00076C492.032 19.0157 489 35.7714 489 47L489 159L23 159L23 41C23 27.2961 19.5495 6.59308 36 1C32.0414 -0.661133 27.2604 0 23 0L0 0z"/>
<path style="fill:#000000; stroke:none;" d="M23 159L489 159L489 46C489 33.7964 492.862 13.4109 482.895 4.22455C476.039 -2.0946 464.574 0 456 0L391 0L129 0L57 0C47.7245 0 35.2516 -2.3537 28.2137 5.10803C19.1859 14.6796 23 34.9184 23 47L23 159z"/>
<path style="fill:#ffffff; stroke:none;" d="M124 53.4645C119.728 54.2279 115.445 55.6928 112.004 58.3935C90.4345 75.3194 106.038 110.021 133 104.904C136.714 104.198 139.988 102.774 142.999 100.468C163.42 84.8305 150.873 48.6626 124 53.4645M210 62.4792C193.556 65.8744 191.031 89.3261 207 95.4367C212.394 97.5007 218.341 97 224 97L253 97L354 97L384 97C390.516 97 397.2 97.2238 402.907 93.5178C416.386 84.7639 410.235 64.1072 395 62.1852C382.697 60.633 369.401 62 357 62L283 62L235 62C226.96 62 217.897 60.8486 210 62.4792z"/>
<path style="fill:#000000; stroke:none;" d="M23 194L23 318L489 318L489 194L23 194z"/>
<path style="fill:#ffffff; stroke:none;" d="M122 230.518C95.3656 236.21 95.3656 275.79 122 281.482C125.862 282.308 130.158 282.206 134 281.319C137.257 280.568 140.285 279.166 142.996 277.211C165.589 260.919 148.952 224.757 122 230.518M208 239.649C192.399 244.362 192.399 267.638 208 272.351C212.923 273.838 218.909 273 224 273L254 273L354 273L386 273C391.718 273 398.005 273.694 402.985 270.297C414.896 262.173 411.666 241.977 397 239.329C383.773 236.941 368.439 239 355 239L269 239L228 239C221.73 239 214.05 237.821 208 239.649z"/>
<path style="fill:#000000; stroke:none;" d="M23 353L23 465C23 477.082 19.1859 497.32 28.2137 506.892C35.2516 514.354 47.7245 512 57 512L129 512L391 512L456 512C464.574 512 476.039 514.095 482.895 507.775C492.862 498.589 489 478.204 489 466L489 353L23 353z"/>
<path style="fill:#ffffff; stroke:none;" d="M126 406.529C121.846 406.892 117.567 408.114 114 410.283C91.0865 424.216 103.077 461.428 130 458.823C133.491 458.485 136.935 457.338 139.999 455.648C163.537 442.668 153.711 404.107 126 406.529M211 415.468C194.273 418.63 190.207 442.014 207 448.656C211.981 450.626 217.758 450 223 450L252 450L353 450L384 450C390.102 450 396.495 450.663 401.985 447.467C417.951 438.174 409.199 416.935 393 415.174C380.925 413.861 368.145 415 356 415L284 415L236 415C227.902 415 218.977 413.96 211 415.468z"/>
</svg>
