<?xml version="1.0" standalone="yes"?>
<svg xmlns="http://www.w3.org/2000/svg" width="512" height="512">
<path style="fill:#ffffff; stroke:none;" d="M0 0L0 178C2.46684 174.745 4.472 171.402 8.01466 169.144C16.6916 163.615 30.1765 166 40 166L121 166L121 346L33 346C20.8923 346 6.3108 347.67 1 334C-1.08511 338.969 0 345.65 0 351L0 387L0 512L512 512L512 327C510.109 329.677 508.534 332.484 505.956 334.606C493.355 344.982 482.731 332.731 474 324L446 296C442.489 292.489 435.359 282.207 430 282.207C424.641 282.207 417.511 292.489 414 296L382 327.999C376.63 333.343 370.317 339.727 362 338.492C351.143 336.881 343.471 323.884 349.09 314C352.358 308.251 358.367 303.633 363 299L390 272C393.511 268.489 403.793 261.359 403.793 256C403.793 250.875 394.338 244.338 391 241L364 214C359.253 209.253 353.424 204.623 349.703 199C344.495 191.13 347.895 181.752 355.004 176.43C362.253 171.002 370.737 173.714 377 179.185C390.374 190.867 402.443 204.443 415 217C418.338 220.338 424.875 229.793 430 229.793C435.125 229.793 441.662 220.338 445 217L472 190C476.728 185.272 481.341 179.515 487 175.879C496.276 169.919 507.276 175.393 511 185C513.189 179.783 512 172.619 512 167L512 130L512 0L0 0z"/>
<path style="fill:#000000; stroke:none;" d="M277 58.7021C266.576 62.1773 256.76 72.6593 248 79.1157C227.284 94.3848 206.592 109.689 186 125.127C178.706 130.595 171.294 135.903 164 141.373C160.698 143.85 156.043 146.355 154.028 150.09C151.618 154.556 153 162.067 153 167L153 205L153 311L153 344C153 349.01 152.065 355.111 153.318 359.985C154.409 364.23 158.716 366.661 162 369.127C168.628 374.102 175.33 378.968 182 383.884C206.734 402.115 231.419 420.438 256 438.873C265.744 446.182 276.624 457.692 289.999 453.146C299.536 449.904 300.957 439.755 300.999 431C301.104 409.335 301 387.666 301 366L301 126L301 92C301 84.7168 301.657 77.1074 299.746 70C297.093 60.131 286.544 55.5201 277 58.7021M121 346L121 166L40 166C29.7737 166 14.774 163.241 6.09414 169.803C-3.52576 177.076 0 194.411 0 205L0 304C0 315.092 -3.95237 334.601 6.09414 342.197C14.774 348.759 29.7737 346 40 346L121 346M361 173.472C350.068 175.461 343.771 187.937 348.573 198C351.375 203.873 357.473 208.473 362 213L390 241C393.174 244.174 404.126 251.925 402.793 257C401.798 260.79 396.661 264.339 394 267L372 289L356.001 305C352.214 308.807 348.315 312.492 347.329 318C345.061 330.674 356.414 341.67 369 338.061C376.044 336.041 381.005 329.995 386 325L411 300C415.329 295.671 419.589 291.255 424 287.009C425.824 285.254 428.139 282.455 431 283.207C435.755 284.456 440.631 291.631 444 295L476 327C482.64 333.637 489.689 341.174 500 338.211C510.617 335.159 515.202 322.781 510.312 313C507.376 307.128 501.57 302.57 497 298L470 271C466.826 267.826 455.874 260.075 457.207 255C458.202 251.21 463.339 247.661 466 245L488 223C493.33 217.67 498.728 212.401 503.985 207C507.631 203.255 511.096 199.371 511.812 194C513.511 181.244 503.311 169.673 490 173.993C483.463 176.115 478.699 182.301 474 187L448 213C443.686 217.314 439.505 221.846 435 225.961C433.355 227.464 431.453 229.437 429 228.793C424.245 227.545 419.369 220.369 416 217L383 184.001C376.967 177.997 370.212 171.797 361 173.472z"/>
<path style="fill:#ffffff; stroke:none;" d="M511 196C508.309 202.945 502.167 207.833 497 213L470 240C466.489 243.511 456.207 250.641 456.207 256C456.207 261.359 466.489 268.489 470 272L497 299C502.167 304.167 508.309 309.055 511 316C514.507 307.643 512 294.06 512 285L512 223C512 214.993 514.105 203.4 511 196z"/>
</svg>
