<?xml version="1.0" standalone="yes"?>
<svg xmlns="http://www.w3.org/2000/svg" width="512" height="512">
<path style="fill:#ffffff; stroke:none;" d="M0 0L0 164C3.33279 156.131 3.22914 145.473 5.23457 137C8.69085 122.397 14.1611 108.184 21.3086 95C42.4683 55.9684 80.0235 26.5223 125 22.1698C144.282 20.3038 164.536 23.1595 183 28.7215C201.742 34.3675 219.715 44.5336 235 56.6659C239.849 60.515 244.523 64.7363 249 69.01C250.843 70.7691 253.179 73.7932 256 73.7932C258.821 73.7932 261.157 70.7691 263 69.01C267.477 64.7363 272.151 60.515 277 56.6659C292.505 44.359 310.893 33.9033 330 28.4275C354.596 21.3788 382.048 18.832 407 25.7454C454.02 38.7732 487.569 77.7085 502.667 123C507.087 136.26 510.961 150.953 511 165C512.981 160.28 512 154.08 512 149L512 116L512 0L0 0z"/>
<path style="fill:#000000; stroke:none;" d="M122 22.4283C107.36 24.5245 93.2699 28.3299 80 34.9691C6.57882 71.7035 -12.3702 166.777 7.15509 240C27.7686 317.304 86.6076 379.579 149 426.373C173.572 444.802 199.362 461.307 226 476.579C236.013 482.319 247.784 491.809 260 489.671C270.406 487.851 280.935 479.438 290 474.281C313.086 461.148 335.733 446.798 357 430.873C441.302 367.75 523.263 274.995 511.166 162C509.361 145.14 505.412 128.865 499.424 113C491.265 91.3835 477.951 70.8584 461 55.0895C417.718 14.8256 353.902 13.6134 303 39.2477C291.071 45.2549 280.008 53.0382 270 61.8449C266.793 64.6671 260.453 72.9444 256 72.9444C252.071 72.9444 247.743 66.8029 245 64.4244C235.526 56.2097 225.811 48.8481 215 42.4522C188.265 26.6349 153.068 17.9796 122 22.4283z"/>
<path style="fill:#ffffff; stroke:none;" d="M0 203L0 512L512 512L512 203C510.474 206.629 510.568 211.079 509.92 215C508.751 222.073 507.15 229.01 505.575 236C502.19 251.017 496.1 266.042 489.691 280C458.136 348.732 397.853 403.561 336 444.999C318.089 456.999 299.725 468.168 281 478.85C273.61 483.065 264.84 489.92 256 489.92C247.16 489.92 238.39 483.065 231 478.85C212.275 468.168 193.911 456.999 176 444.999C114.147 403.561 53.8638 348.732 22.3086 280C15.9003 266.042 9.80964 251.017 6.42515 236C4.84972 229.01 3.24904 222.073 2.08025 215C1.43238 211.079 1.52634 206.629 0 203z"/>
</svg>
