<?xml version="1.0" standalone="yes"?>
<svg xmlns="http://www.w3.org/2000/svg" width="512" height="512">
<path style="fill:#ffffff; stroke:none;" d="M0 0L0 213C2.82066 209.877 5.17155 206.461 9.00077 204.442C17.7378 199.836 30.4461 202 40 202L104 202L397 202L479 202C491.19 202 504.45 200.41 511 213C513.395 207.293 512 199.154 512 193L512 150L512 0L0 0z"/>
<path style="fill:#000000; stroke:none;" d="M30 171L482 171L482 140C482 132.634 481.903 125.596 475.906 120.343C470.039 115.204 462.254 116 455 116L411 116L234 116C234 104.782 237.215 88.912 225.996 82.0054C220.858 78.8422 214.802 79.0004 209 79L183 79L81 79L54 79C48.325 79.0091 41.8252 79.1607 37.0432 82.6528C28.9736 88.5456 30 99.1857 30 108L30 171M14 202.468C-7.14837 206.466 0.703215 234.845 2.16975 250C6.41612 293.88 12.5137 337.987 14.9645 382C15.5216 392.005 16.7669 402.038 17.8341 412C18.5816 418.978 19.4545 425.934 26.0154 429.992C35.2786 435.72 50.5864 433 61 433L141 433L375 433L446 433C457.406 433 470.974 434.985 482 431.695C498.156 426.875 494.694 402.141 496.424 389C502.321 344.218 503.921 298.854 509.285 254C510.544 243.476 512 232.605 512 222C512 214.707 511.13 208.235 503.996 204.442C493.322 198.766 475.761 202 464 202L372 202L130 202L53 202C40.4919 202 26.3022 200.142 14 202.468z"/>
<path style="fill:#ffffff; stroke:none;" d="M0 231L0 512L512 512L512 231C509.92 235.956 510.305 242.633 509.911 248C509.153 258.347 507.746 268.656 506.914 279C504.264 311.975 501.174 345.149 497.285 378C496.027 388.631 495.59 399.371 494.285 410C493.527 416.168 493.298 422.075 488.786 426.895C481.751 434.41 470.338 433 461 433L395 433L125 433L53 433C43.1891 433 30.6302 434.817 23.2137 426.895C18.7018 422.075 18.4728 416.168 17.7153 410C16.4099 399.371 15.9729 388.631 14.7145 378C10.8257 345.149 7.73602 311.975 5.08565 279C4.25422 268.656 2.84716 258.347 2.08873 248C1.69533 242.633 2.08053 235.956 0 231z"/>
</svg>
