<?xml version="1.0" standalone="yes"?>
<svg xmlns="http://www.w3.org/2000/svg" width="512" height="512">
<path style="fill:#ffffff; stroke:none;" d="M0 0L0 512L78 512C73.4853 509.542 68.4457 508.292 64 505.532C53.3815 498.942 46.2404 488.126 43.669 476C37.3279 446.098 67.3228 417.253 97 424.76C133.371 433.96 143.493 481.307 112.999 503.711C108.106 507.306 102.893 509.636 97 511C100.959 512.661 105.74 512 110 512L134 512L218 512L512 512L512 0L97 0C101.073 2.5629 105.869 3.63251 110 6.24304C120.199 12.689 128.236 23.0164 130.539 35C136.68 66.9528 104.996 98.0295 73 85.9344C58.1562 80.3231 46.723 67.6513 43.5147 52C38.9814 29.8853 55.3506 4.39505 78 1C71.3223 -1.80206 61.2156 0 54 0L0 0z"/>
<path style="fill:#000000; stroke:none;" d="M78 0.464508C47.6641 5.93402 33.7122 42.6137 49.4676 68C59.2452 83.7544 78.1465 90.8084 96 87.679C124.145 82.7457 139.545 50.5237 127.676 25C118.885 6.09509 98.12 -3.16309 78 0.464508M195 17.4676C169.118 22.3587 167.07 60.3377 191 69.5316C197.479 72.021 205.182 71 212 71L252 71L390 71L432 71C440.23 71 448.592 71.9374 456 67.6366C476.571 55.6928 471.893 20.2936 447 17.1852C430.826 15.1655 413.304 17 397 17L298 17L230 17C218.751 17 206.068 15.376 195 17.4676M86 211.594C79.2167 211.842 73.0886 213.223 67 216.27C32.9798 233.293 36.4247 283.585 71 297.547C76.3241 299.697 82.2557 300.616 88 300.406C95.2594 300.141 102.582 298.633 109 295.095C141.084 277.411 138.148 226.662 103 214.345C97.5559 212.437 91.7965 211.382 86 211.594M194 229.529C168.298 235.461 167.79 273.59 192 281.892C198.439 284.1 206.283 283 213 283L253 283L389 283L432 283C440.23 283 448.592 283.937 456 279.637C476.306 267.847 472.107 233.556 448 229.329C442.216 228.314 435.857 229 430 229L396 229L290 229L226 229C215.877 229 203.885 227.248 194 229.529M86 423.594C45.2138 425.084 27.2022 478.19 60 503.471C69.7615 510.995 81.0517 512.541 93 511.96C122.057 510.546 137.989 477.309 128.91 452C122.554 434.284 104.648 422.913 86 423.594M194 441.529C169.036 447.26 167.313 484.674 191 493.441C197.852 495.977 205.826 495 213 495L253 495L389 495L432 495C440.23 495 448.592 495.937 456 491.637C476.306 479.847 472.107 445.556 448 441.329C442.216 440.314 435.857 441 430 441L396 441L290 441L226 441C215.871 441 203.894 439.258 194 441.529z"/>
</svg>
