<?xml version="1.0" standalone="yes"?>
<svg xmlns="http://www.w3.org/2000/svg" width="512" height="512">
<path style="fill:#ffffff; stroke:none;" d="M0 0L0 174C2.63888 170.262 4.8819 166.443 9.00077 164.09C17.1324 159.442 30.9209 162 40 162L127 162L127 350L33 350C20.8669 350 5.85298 352.274 1 338C-1.08511 342.969 0 349.65 0 355L0 390L0 512L512 512L512 262C509.062 265.362 506.978 269.144 502.985 271.467C493.939 276.73 479.128 274 469 274L395 274C389.825 274 384.012 274.712 379 273.2C370.071 270.507 364.101 261.246 366.34 252C369.948 237.103 384.908 238 397 238L479 238C491.891 238 504.533 236.446 511 250C513.701 243.564 512 233.951 512 227L512 176L512 0L0 0z"/>
<path style="fill:#000000; stroke:none;" d="M294 47.5324C282.147 50.3508 270.56 62.7037 261 69.8734C238.414 86.8131 215.588 103.434 193 120.373C185.705 125.844 178.295 131.155 171 136.627C167.896 138.955 163.152 141.424 161.603 145.174C160.094 148.829 161 154.117 161 158L161 184L161 277L161 340C161 347.615 158.682 359.752 161.603 366.826C163.025 370.269 167.151 372.489 170 374.627C176.96 379.849 184.036 384.912 191 390.127C216.602 409.297 242.414 428.184 268 447.373C277.882 454.785 290.355 468.316 304 464.2C313.286 461.398 316.565 452.954 316.961 444C317.841 424.082 317 403.939 317 384L317 129L317 87C317 79.1289 317.795 70.7686 316.384 63C314.413 52.1469 305.28 44.8502 294 47.5324M127 350L127 162L40 162C30.2064 162 14.1688 158.921 6.04398 165.419C-3.75722 173.257 0 191.872 0 203L0 307C0 318.804 -4.2429 339.608 7.01543 347.297C15.3929 353.018 31.2847 350 41 350L127 350M379 238.532C362.444 242.477 361.068 267.009 377 272.867C385.697 276.064 397.83 274 407 274L469 274C478.873 274 492.813 276.496 501.996 272.467C516.839 265.954 514.8 242.298 499 238.532C493.929 237.324 488.179 238 483 238L453 238L404 238C396.057 238 386.756 236.684 379 238.532z"/>
</svg>
