<?xml version="1.0" standalone="yes"?>
<svg xmlns="http://www.w3.org/2000/svg" width="512" height="512">
<path style="fill:#ffffff; stroke:none;" d="M0 0L0 512L89 512C85.2933 508.655 80.9643 505.827 79.0093 501C76.7626 495.453 78 487.882 78 482L78 444L78 265C59.2494 265 39.6594 266.637 21 264.83C12.0694 263.965 4.44566 260.244 1.78935 251C-0.877884 241.718 5.98772 235.022 12 229C26.6162 214.359 41.4867 199.397 57 185.715C76.4943 168.52 94.3903 149.168 113 131.015C137.461 107.153 162.693 84.0138 187 59.9962C199.581 47.5646 212.504 35.4961 225 23C232.688 15.3115 240.138 5.91269 250 1C243.564 -1.70068 233.951 0 227 0L176 0L0 0z"/>
<path style="fill:#000000; stroke:none;" d="M78 265L78 446L78 488C78 495.823 77.3465 503.131 84.0432 508.606C91.2581 514.504 104.257 512 113 512L184 512L184 381L184 347C184 341.062 183.086 334.339 186.228 329.004C192.847 317.768 205.891 320 217 320L296 320C306.893 320 319.299 318.016 325.772 329.004C328.914 334.339 328 341.062 328 347L328 381L328 512L399 512C407.743 512 420.742 514.504 427.957 508.606C434.654 503.131 434 495.823 434 488L434 446L434 265C451.666 265 469.334 265.084 487 264.999C495.243 264.959 504.197 263.952 508.583 255.996C514.406 245.433 508.476 236.516 500.999 229C491.846 219.799 482.181 211.181 473 202C445.837 174.837 417.76 148.505 390 121.961C370.225 103.051 351.52 82.813 331 64.7145C314.022 49.74 298.011 33.011 282 17C274.648 9.64801 267.26 0.00772095 256 0.00772095C244.74 0.00772095 237.352 9.64801 230 17C213.989 33.011 197.978 49.74 181 64.7145C160.48 82.813 141.775 103.052 122 121.961C94.2403 148.505 66.1627 174.837 39 202C29.8189 211.181 20.154 219.799 11.0008 229C3.52358 236.516 -2.40558 245.433 3.41744 255.996C7.80346 263.952 16.7566 264.959 25 264.999C42.6657 265.084 60.334 265 78 265z"/>
<path style="fill:#ffffff; stroke:none;" d="M262 0C327.934 58.7123 388.361 123.698 453 183.91C468.513 198.361 484.011 213.005 499 228C505.264 234.266 513.022 241.217 510.211 251C507.554 260.244 499.931 263.965 491 264.83C472.341 266.637 452.751 265 434 265L434 449L434 483C434 494.696 434.896 504.824 423 511C430.4 514.105 441.993 512 450 512L512 512L512 0L262 0M184 512L328 512L328 380L328 345C328 339.355 328.795 333.073 325.772 328.015C319.41 317.369 305.515 320 295 320L216 320C205.681 320 192.461 317.585 186.228 328.015C183.205 333.073 184 339.355 184 345L184 380L184 512z"/>
</svg>
