<?xml version="1.0" standalone="yes"?>
<svg xmlns="http://www.w3.org/2000/svg" width="512" height="512">
<path style="fill:#ffffff; stroke:none;" d="M0 0L0 512L425 512C413.113 502.011 399.537 493.357 387 484.116C359.247 463.66 331.581 443.059 304 422.373C293.039 414.153 281.962 406.095 271 397.873C266.557 394.541 259.673 391.01 257.028 385.961C255.491 383.026 256 379.198 256 376L256 356L256 281L256 173L256 142C256 137.436 254.967 131.343 256.603 127.015C258.502 121.995 264.906 118.697 269 115.627C278.962 108.155 289.038 100.845 299 93.3734C328.539 71.219 357.981 48.7888 388 27.2901C399.908 18.7621 411.54 6.88339 425 1C421.041 -0.661072 416.26 0 412 0L387 0L301 0L0 0z"/>
<path style="fill:#000000; stroke:none;" d="M425 0.638123C419.728 2.15997 415.303 6.1467 411 9.37344C403.343 15.1154 395.759 20.9727 388 26.5756C358.062 48.1936 328.542 70.4699 299 92.6266C289.372 99.8476 279.628 106.905 270 114.127C265.895 117.206 259.525 120.463 257.028 125.09C254.277 130.189 256 139.342 256 145L256 193L256 324L256 365C256 371.217 254.765 378.947 256.318 384.985C257.574 389.869 263.234 392.802 267 395.627C275.962 402.348 285.009 408.95 294 415.63C327.995 440.883 362.07 466.036 396 491.374C407.413 499.897 422.156 516.514 438 511.146C450.775 506.818 449 492.727 449 482L449 399L449 90L449 39C449 30.7419 450.371 21.0851 448.61 13C446.286 2.33328 434.911 -2.22253 425 0.638123z"/>
<path style="fill:#ffffff; stroke:none;" d="M437 0C440.283 2.48593 443.709 4.47748 446.03 8.01465C451.453 16.2771 449 29.5416 449 39L449 102L449 398L449 481C449 492.906 450.331 505.832 437 511C443.436 513.701 453.049 512 460 512L512 512L512 0L437 0z"/>
<path style="fill:#000000; stroke:none;" d="M221 370L221 142L112 142L87 142C80.8361 142.01 74.0365 142.297 69.044 146.394C63.0622 151.303 63.0005 157.893 63 165L63 191L63 318L63 346C63 353.859 62.904 361.298 70.0154 366.347C75.1656 370.004 81.9548 369.998 88 370L113 370L221 370z"/>
</svg>
